<svg width="15" height="15" viewBox="0 0 15 15" fill="none" xmlns="http://www.w3.org/2000/svg">
<mask id="mask0_69_27" style="mask-type:alpha" maskUnits="userSpaceOnUse" x="0" y="0" width="15" height="15">
<rect x="0.0254822" width="14.156" height="14.156" transform="rotate(0.103172 0.0254822 0)" fill="#D9D9D9"/>
</mask>
<g mask="url(#mask0_69_27)">
<path d="M3.86602 11.2138C3.41918 11.213 3.03964 11.0618 2.72739 10.7601C2.41514 10.4585 2.2594 10.0927 2.26018 9.66257L1.18776 9.66064L1.19798 3.9835C1.19849 3.69964 1.30402 3.45692 1.51458 3.25533C1.72478 3.0534 1.97734 2.95269 2.27226 2.95323L9.77922 2.96674L9.7755 5.03116L11.3841 5.03405L12.9891 7.10136L12.9844 9.68188L11.912 9.67995C11.9112 10.11 11.7542 10.4753 11.4408 10.7758C11.1275 11.0763 10.7474 11.2262 10.3006 11.2254C9.85372 11.2246 9.47417 11.0733 9.16193 10.7717C8.84968 10.4701 8.69394 10.1042 8.69472 9.67416L5.47745 9.66836C5.47667 10.0985 5.31962 10.4637 5.00629 10.7642C4.69296 11.0647 4.31287 11.2146 3.86602 11.2138ZM3.86788 10.1816C4.01981 10.1818 4.14734 10.1325 4.25047 10.0336C4.35324 9.93506 4.40476 9.81266 4.40502 9.66643C4.40529 9.5202 4.35421 9.39762 4.25179 9.29869C4.14902 9.19941 4.02167 9.14964 3.86974 9.14936C3.71782 9.14909 3.59029 9.19841 3.48716 9.29731C3.38438 9.39588 3.33286 9.51827 3.3326 9.6645C3.33234 9.81073 3.38342 9.93331 3.48583 10.0322C3.58861 10.1315 3.71596 10.1813 3.86788 10.1816ZM10.3024 10.1932C10.4543 10.1934 10.5817 10.1441 10.6845 10.0452C10.7876 9.94665 10.8393 9.82425 10.8396 9.67802C10.8398 9.53179 10.7886 9.40921 10.6858 9.31028C10.5834 9.211 10.4562 9.16122 10.3043 9.16095C10.1524 9.16068 10.025 9.20999 9.92223 9.3089C9.8191 9.40746 9.7674 9.52986 9.76714 9.67609C9.76688 9.82232 9.81813 9.9449 9.92091 10.0438C10.0233 10.1431 10.1505 10.1929 10.3024 10.1932ZM9.77086 7.61167L12.0498 7.61578L10.8461 6.0653L9.77365 6.06336L9.77086 7.61167Z" fill="#363636"/>
</g>
</svg>
